<svg width="1200" height="600" viewBox="0 0 1200 600" fill="none"
  xmlns="http://www.w3.org/2000/svg">
  <rect width="1200" height="600" fill="url(#paint0_linear_1_19)"/>
  <path d="M278.504 101L124.687 205.845C124.687 205.845 108.522 314.292 136.233 373.996C167.4 441.148 278.504 499.28 278.504 499.28V101Z" fill="url(#paint1_linear_1_19)"/>
  <path d="M278.371 101.398L431.891 206.069C431.891 206.069 448.024 314.335 420.367 373.939C389.26 440.979 278.371 499.014 278.371 499.014V101.398Z" fill="url(#paint2_linear_1_19)"/>
  <g filter="url(#filter0_d_1_19)">
    <path fill-rule="evenodd" clip-rule="evenodd" d="M297.043 318.759C328.363 310.492 351.456 281.967 351.456 248.049C351.456 207.662 318.716 174.923 278.33 174.923C237.943 174.923 205.203 207.662 205.203 248.049C205.203 281.39 227.516 309.519 258.024 318.319V349.202L271.959 370.601L258.024 389.441V412.701L297.043 433.983V318.759ZM278.462 232.919C278.462 243.254 270.084 251.632 259.75 251.632C249.415 251.632 241.037 243.254 241.037 232.919C241.037 222.584 249.415 214.206 259.75 214.206C270.084 214.206 278.462 222.584 278.462 232.919Z" fill="black"/>
  </g>
  <path d="M580.68 357.96H586.02V361.08H586.08C586.52 358.6 589.82 357.36 595.98 357.36C599.66 357.36 602.44 358.14 604.32 359.7C606.2 361.22 607.14 363.18 607.14 365.58V377.52C607.14 379.24 606.88 380.74 606.36 382.02C605.88 383.3 605.24 384.3 604.44 385.02C603.72 385.7 602.72 386.24 601.44 386.64C600.2 387.04 598.96 387.3 597.72 387.42C596.6 387.54 595.24 387.6 593.64 387.6C591.88 387.6 590.26 387.4 588.78 387C587.34 386.56 586.44 385.94 586.08 385.14V399.48H580.68V357.96ZM593.76 383.94C595.84 383.94 597.42 383.8 598.5 383.52C599.62 383.2 600.42 382.64 600.9 381.84C601.38 381.04 601.62 379.82 601.62 378.18V367.5C601.62 365.7 601.38 364.36 600.9 363.48C600.42 362.6 599.62 362.02 598.5 361.74C597.42 361.42 595.82 361.26 593.7 361.26C591.58 361.26 590 361.42 588.96 361.74C587.92 362.02 587.18 362.6 586.74 363.48C586.3 364.32 586.08 365.66 586.08 367.5V378.18C586.08 379.82 586.3 381.04 586.74 381.84C587.22 382.64 588 383.2 589.08 383.52C590.16 383.8 591.72 383.94 593.76 383.94ZM615.426 357.96H620.526V362.7C620.526 361.78 620.926 360.92 621.726 360.12C622.526 359.28 623.546 358.62 624.786 358.14C626.026 357.62 627.246 357.36 628.446 357.36H631.086V361.98H628.086C625.526 361.98 623.666 362.32 622.506 363C621.386 363.64 620.826 364.82 620.826 366.54V387H615.426V357.96ZM636.461 347.46H641.861V353.1H636.461V347.46ZM636.461 357.96H641.861V387H636.461V357.96ZM646.907 357.96H652.607L660.647 382.32H660.947L668.747 357.96H673.967L663.827 387H657.347L646.907 357.96ZM687.94 387.6C685.18 387.6 683.04 387.34 681.52 386.82C680.04 386.3 678.96 385.38 678.28 384.06C677.64 382.74 677.32 380.84 677.32 378.36C677.32 376.16 677.62 374.46 678.22 373.26C678.86 372.02 679.92 371.14 681.4 370.62C682.92 370.1 685.06 369.84 687.82 369.84H696.52V365.22C696.52 364.14 696.3 363.32 695.86 362.76C695.46 362.16 694.76 361.74 693.76 361.5C692.8 361.26 691.38 361.14 689.5 361.14C686.5 361.14 683.18 361.38 679.54 361.86V357.9C683.5 357.54 687.08 357.36 690.28 357.36C693.64 357.36 696.12 357.62 697.72 358.14C699.32 358.62 700.42 359.48 701.02 360.72C701.62 361.96 701.92 363.88 701.92 366.48V387H696.7V384.24C696.26 386.48 693.34 387.6 687.94 387.6ZM688.84 384.06C690.8 384.06 692.46 383.92 693.82 383.64C695.62 383.28 696.52 382.44 696.52 381.12V373.2H688.18C686.46 373.2 685.22 373.34 684.46 373.62C683.7 373.86 683.2 374.34 682.96 375.06C682.72 375.78 682.6 376.94 682.6 378.54C682.6 379.98 682.74 381.1 683.02 381.9C683.3 382.66 683.8 383.22 684.52 383.58C685.24 383.9 686.32 384.06 687.76 384.06H688.84ZM723.465 387.6C720.985 387.6 719.045 387.34 717.645 386.82C716.245 386.26 715.225 385.34 714.585 384.06C713.985 382.74 713.685 380.9 713.685 378.54V361.5H707.205V357.96H713.685V348.96H719.145V357.96H729.525V361.5H719.145V378.84C719.145 380.28 719.305 381.36 719.625 382.08C719.985 382.8 720.585 383.32 721.425 383.64C722.305 383.92 723.565 384.06 725.205 384.06C725.725 384.06 727.165 383.9 729.525 383.58V387.12C727.485 387.44 725.465 387.6 723.465 387.6ZM747.666 387.6C738.786 387.6 734.346 384.64 734.346 378.72V367.26C734.346 363.74 735.346 361.22 737.346 359.7C739.386 358.14 742.666 357.36 747.186 357.36C751.466 357.36 754.546 358.1 756.426 359.58C758.346 361.06 759.306 363.62 759.306 367.26V373.68H739.806V378.06C739.806 380.06 740.506 381.5 741.906 382.38C743.306 383.26 745.466 383.7 748.386 383.7C751.146 383.7 754.406 383.22 758.166 382.26V386.4C754.486 387.2 750.986 387.6 747.666 387.6ZM753.906 370.14V365.58C753.906 363.82 753.366 362.62 752.286 361.98C751.246 361.3 749.446 360.96 746.886 360.96C744.406 360.96 742.606 361.3 741.486 361.98C740.366 362.62 739.806 363.82 739.806 365.58V370.14H753.906ZM781.364 357.96H786.764V361.5C787.324 358.74 790.584 357.36 796.544 357.36C801.384 357.36 804.404 358.68 805.604 361.32C805.964 360.04 807.044 359.06 808.844 358.38C810.684 357.7 812.924 357.36 815.564 357.36C819.164 357.36 821.704 358.04 823.184 359.4C824.664 360.72 825.404 362.82 825.404 365.7V387H820.004V366.06C820.004 365.3 819.944 364.68 819.824 364.2C819.704 363.72 819.464 363.24 819.104 362.76C818.304 361.76 816.524 361.26 813.764 361.26C811.644 361.26 810.064 361.4 809.024 361.68C807.984 361.96 807.264 362.44 806.864 363.12C806.504 363.8 806.324 364.78 806.324 366.06V387H800.924V366.06C800.924 365.3 800.864 364.68 800.744 364.2C800.624 363.72 800.384 363.24 800.024 362.76C799.224 361.76 797.464 361.26 794.744 361.26C792.544 361.26 790.884 361.4 789.764 361.68C788.644 361.96 787.864 362.44 787.424 363.12C786.984 363.76 786.764 364.74 786.764 366.06V387H781.364V357.96ZM846.983 387.6C838.103 387.6 833.663 384.64 833.663 378.72V367.26C833.663 363.74 834.663 361.22 836.663 359.7C838.703 358.14 841.983 357.36 846.503 357.36C850.783 357.36 853.863 358.1 855.743 359.58C857.663 361.06 858.623 363.62 858.623 367.26V373.68H839.123V378.06C839.123 380.06 839.823 381.5 841.223 382.38C842.623 383.26 844.783 383.7 847.702 383.7C850.463 383.7 853.723 383.22 857.483 382.26V386.4C853.803 387.2 850.303 387.6 846.983 387.6ZM853.223 370.14V365.58C853.223 363.82 852.683 362.62 851.603 361.98C850.563 361.3 848.763 360.96 846.203 360.96C843.723 360.96 841.923 361.3 840.803 361.98C839.683 362.62 839.123 363.82 839.123 365.58V370.14H853.223ZM875.732 387.6C872.652 387.6 869.332 387.36 865.772 386.88V382.74C870.452 383.5 873.812 383.88 875.852 383.88C878.412 383.88 880.252 383.64 881.372 383.16C882.492 382.64 883.052 381.7 883.052 380.34V377.4C883.052 376.16 882.632 375.28 881.792 374.76C880.952 374.24 879.592 373.98 877.712 373.98H874.412C871.412 373.98 869.112 373.36 867.512 372.12C865.952 370.88 865.172 369.14 865.172 366.9V364.2C865.172 359.64 869.492 357.36 878.132 357.36C878.772 357.36 881.712 357.52 886.952 357.84V361.74C883.392 361.18 880.372 360.9 877.892 360.9C875.052 360.9 873.112 361.18 872.072 361.74C871.032 362.3 870.512 363.24 870.512 364.56V367.02C870.512 368.98 872.292 369.96 875.852 369.96H879.212C885.332 369.96 888.392 372.24 888.392 376.8V379.32C888.392 382.32 887.352 384.46 885.272 385.74C883.192 386.98 880.012 387.6 875.732 387.6ZM904.736 387.6C901.656 387.6 898.336 387.36 894.776 386.88V382.74C899.456 383.5 902.816 383.88 904.856 383.88C907.416 383.88 909.256 383.64 910.376 383.16C911.496 382.64 912.056 381.7 912.056 380.34V377.4C912.056 376.16 911.636 375.28 910.796 374.76C909.956 374.24 908.596 373.98 906.716 373.98H903.416C900.416 373.98 898.116 373.36 896.516 372.12C894.956 370.88 894.176 369.14 894.176 366.9V364.2C894.176 359.64 898.496 357.36 907.136 357.36C907.776 357.36 910.716 357.52 915.956 357.84V361.74C912.396 361.18 909.376 360.9 906.896 360.9C904.056 360.9 902.116 361.18 901.076 361.74C900.036 362.3 899.516 363.24 899.516 364.56V367.02C899.516 368.98 901.296 369.96 904.856 369.96H908.216C914.336 369.96 917.396 372.24 917.396 376.8V379.32C917.396 382.32 916.356 384.46 914.276 385.74C912.196 386.98 909.016 387.6 904.736 387.6ZM933.8 387.6C931.04 387.6 928.9 387.34 927.38 386.82C925.9 386.3 924.82 385.38 924.14 384.06C923.5 382.74 923.18 380.84 923.18 378.36C923.18 376.16 923.48 374.46 924.08 373.26C924.72 372.02 925.78 371.14 927.26 370.62C928.78 370.1 930.92 369.84 933.68 369.84H942.38V365.22C942.38 364.14 942.16 363.32 941.72 362.76C941.32 362.16 940.62 361.74 939.62 361.5C938.66 361.26 937.24 361.14 935.36 361.14C932.36 361.14 929.04 361.38 925.4 361.86V357.9C929.36 357.54 932.94 357.36 936.14 357.36C939.5 357.36 941.98 357.62 943.58 358.14C945.18 358.62 946.28 359.48 946.88 360.72C947.48 361.96 947.78 363.88 947.78 366.48V387H942.56V384.24C942.12 386.48 939.2 387.6 933.8 387.6ZM934.7 384.06C936.66 384.06 938.32 383.92 939.68 383.64C941.48 383.28 942.38 382.44 942.38 381.12V373.2H934.04C932.32 373.2 931.08 373.34 930.32 373.62C929.56 373.86 929.06 374.34 928.82 375.06C928.58 375.78 928.46 376.94 928.46 378.54C928.46 379.98 928.6 381.1 928.88 381.9C929.16 382.66 929.66 383.22 930.38 383.58C931.1 383.9 932.18 384.06 933.62 384.06H934.7ZM968.125 400.2C964.165 400.2 960.825 399.98 958.105 399.54V395.7C962.905 396.26 966.405 396.54 968.605 396.54C971.365 396.54 973.365 396.1 974.605 395.22C975.885 394.34 976.525 392.88 976.525 390.84V383.88C976.445 385.16 975.565 386.1 973.885 386.7C972.245 387.3 970.165 387.6 967.645 387.6C964.645 387.6 962.305 387.32 960.625 386.76C958.985 386.2 957.805 385.28 957.085 384C956.405 382.72 956.065 380.98 956.065 378.78V366.96C956.065 363.52 956.985 361.06 958.825 359.58C960.705 358.1 963.765 357.36 968.005 357.36C973.045 357.36 976.005 358.5 976.885 360.78V357.96H981.925V389.76C981.925 392.44 981.425 394.54 980.425 396.06C979.425 397.58 977.925 398.64 975.925 399.24C973.925 399.88 971.325 400.2 968.125 400.2ZM968.785 384C971.625 384 973.625 383.66 974.785 382.98C975.945 382.3 976.525 381.02 976.525 379.14V366C976.525 364.68 976.305 363.68 975.865 363C975.465 362.32 974.705 361.84 973.585 361.56C972.465 361.24 970.825 361.08 968.665 361.08C966.625 361.08 965.085 361.22 964.045 361.5C963.045 361.78 962.345 362.28 961.945 363C961.585 363.68 961.405 364.68 961.405 366V379.14C961.405 380.5 961.605 381.52 962.005 382.2C962.405 382.88 963.125 383.36 964.165 383.64C965.205 383.88 966.745 384 968.785 384ZM1003.55 387.6C994.665 387.6 990.225 384.64 990.225 378.72V367.26C990.225 363.74 991.225 361.22 993.225 359.7C995.265 358.14 998.545 357.36 1003.07 357.36C1007.35 357.36 1010.43 358.1 1012.31 359.58C1014.23 361.06 1015.19 363.62 1015.19 367.26V373.68H995.685V378.06C995.685 380.06 996.385 381.5 997.785 382.38C999.185 383.26 1001.35 383.7 1004.26 383.7C1007.03 383.7 1010.29 383.22 1014.05 382.26V386.4C1010.37 387.2 1006.87 387.6 1003.55 387.6ZM1009.79 370.14V365.58C1009.79 363.82 1009.25 362.62 1008.17 361.98C1007.13 361.3 1005.33 360.96 1002.77 360.96C1000.29 360.96 998.485 361.3 997.365 361.98C996.245 362.62 995.685 363.82 995.685 365.58V370.14H1009.79ZM1032.29 387.6C1029.21 387.6 1025.89 387.36 1022.33 386.88V382.74C1027.01 383.5 1030.37 383.88 1032.41 383.88C1034.97 383.88 1036.81 383.64 1037.93 383.16C1039.05 382.64 1039.61 381.7 1039.61 380.34V377.4C1039.61 376.16 1039.19 375.28 1038.35 374.76C1037.51 374.24 1036.15 373.98 1034.27 373.98H1030.97C1027.97 373.98 1025.67 373.36 1024.07 372.12C1022.51 370.88 1021.73 369.14 1021.73 366.9V364.2C1021.73 359.64 1026.05 357.36 1034.69 357.36C1035.33 357.36 1038.27 357.52 1043.51 357.84V361.74C1039.95 361.18 1036.93 360.9 1034.45 360.9C1031.61 360.9 1029.67 361.18 1028.63 361.74C1027.59 362.3 1027.07 363.24 1027.07 364.56V367.02C1027.07 368.98 1028.85 369.96 1032.41 369.96H1035.77C1041.89 369.96 1044.95 372.24 1044.95 376.8V379.32C1044.95 382.32 1043.91 384.46 1041.83 385.74C1039.75 386.98 1036.57 387.6 1032.29 387.6Z" fill="white"/>
  <path d="M576.2 246.6H586.1L597.9 286.4H598.5L609.9 246.6H620L631.8 286.4H632.4L643.8 246.6H653L637.1 295H626.4L614.7 255.9L603.2 295H592.5L576.2 246.6ZM682.399 296C667.599 296 660.199 291.067 660.199 281.2V262.1C660.199 256.233 661.866 252.033 665.199 249.5C668.599 246.9 674.066 245.6 681.599 245.6C688.733 245.6 693.866 246.833 696.999 249.3C700.199 251.767 701.799 256.033 701.799 262.1V272.8H669.299V280.1C669.299 283.433 670.466 285.833 672.799 287.3C675.133 288.767 678.733 289.5 683.599 289.5C688.199 289.5 693.633 288.7 699.899 287.1V294C693.766 295.333 687.933 296 682.399 296ZM692.799 266.9V259.3C692.799 256.367 691.899 254.367 690.099 253.3C688.366 252.167 685.366 251.6 681.099 251.6C676.966 251.6 673.966 252.167 672.099 253.3C670.233 254.367 669.299 256.367 669.299 259.3V266.9H692.799ZM737.115 296C733.515 296 730.615 295.8 728.415 295.4C726.282 295.067 724.148 294.4 722.015 293.4C717.682 291.333 715.515 286.6 715.515 279.2V225H724.515V239.5V245.2C724.448 246.933 724.415 248.867 724.415 251C724.748 249.467 726.148 248.167 728.615 247.1C731.148 246.1 734.815 245.6 739.615 245.6C752.948 245.6 759.615 250.167 759.615 259.3V279.2C759.615 282.067 759.182 284.567 758.315 286.7C757.515 288.833 756.448 290.5 755.115 291.7C753.915 292.833 752.248 293.733 750.115 294.4C748.048 295.067 745.982 295.5 743.915 295.7C742.048 295.9 739.782 296 737.115 296ZM737.315 290.1C740.782 290.1 743.415 289.867 745.215 289.4C747.082 288.867 748.415 287.933 749.215 286.6C750.015 285.267 750.415 283.233 750.415 280.5V261.5C750.415 258.767 750.015 256.733 749.215 255.4C748.415 254 747.082 253.1 745.215 252.7C743.415 252.233 740.748 252 737.215 252C733.948 252 731.415 252.267 729.615 252.8C727.815 253.333 726.515 254.3 725.715 255.7C724.915 257.033 724.515 258.967 724.515 261.5V280.5C724.515 283.233 724.882 285.267 725.615 286.6C726.415 287.933 727.715 288.867 729.515 289.4C731.315 289.867 733.915 290.1 737.315 290.1ZM792.925 296C789.592 296 787.158 295.933 785.625 295.8C784.158 295.667 782.458 295.333 780.525 294.8C778.458 294.267 776.858 293.467 775.725 292.4C774.592 291.333 773.625 289.767 772.825 287.7C772.025 285.7 771.625 283.2 771.625 280.2V262.4C771.625 257 772.658 253.133 774.725 250.8C775.858 249.467 776.992 248.467 778.125 247.8C779.325 247.067 780.858 246.567 782.725 246.3C784.592 246.033 786.258 245.867 787.725 245.8C789.192 245.667 791.258 245.6 793.925 245.6C798.525 245.6 803.125 246.1 807.725 247.1V253.7C802.392 252.367 797.425 251.7 792.825 251.7C789.358 251.7 786.792 251.967 785.125 252.5C783.525 252.967 782.392 253.867 781.725 255.2C781.125 256.467 780.825 258.433 780.825 261.1V280.9C780.825 283.367 781.158 285.2 781.825 286.4C782.558 287.6 783.825 288.467 785.625 289C787.492 289.467 790.225 289.7 793.825 289.7C798.692 289.7 803.558 289.067 808.425 287.8V294.6C803.892 295.533 798.725 296 792.925 296ZM819.812 246.6H828.312V254.5C828.312 252.967 828.978 251.533 830.312 250.2C831.645 248.8 833.345 247.7 835.412 246.9C837.478 246.033 839.512 245.6 841.512 245.6H845.912V253.3H840.912C836.645 253.3 833.545 253.867 831.612 255C829.745 256.067 828.812 258.033 828.812 260.9V295H819.812V246.6ZM866.37 295.7L847.67 246.6H857.47L870.97 286.1H871.17L883.37 246.6H892.47L868.17 315.8H858.77L866.37 295.7ZM900.866 246.6H909.766V251.8H909.866C910.6 247.667 916.1 245.6 926.366 245.6C932.5 245.6 937.133 246.9 940.266 249.5C943.4 252.033 944.966 255.3 944.966 259.3V279.2C944.966 282.067 944.533 284.567 943.666 286.7C942.866 288.833 941.8 290.5 940.466 291.7C939.266 292.833 937.6 293.733 935.466 294.4C933.4 295.067 931.333 295.5 929.266 295.7C927.4 295.9 925.133 296 922.466 296C919.533 296 916.833 295.667 914.366 295C911.966 294.267 910.466 293.233 909.866 291.9V315.8H900.866V246.6ZM922.666 289.9C926.133 289.9 928.766 289.667 930.566 289.2C932.433 288.667 933.766 287.733 934.566 286.4C935.366 285.067 935.766 283.033 935.766 280.3V262.5C935.766 259.5 935.366 257.267 934.566 255.8C933.766 254.333 932.433 253.367 930.566 252.9C928.766 252.367 926.1 252.1 922.566 252.1C919.033 252.1 916.4 252.367 914.666 252.9C912.933 253.367 911.7 254.333 910.966 255.8C910.233 257.2 909.866 259.433 909.866 262.5V280.3C909.866 283.033 910.233 285.067 910.966 286.4C911.766 287.733 913.066 288.667 914.866 289.2C916.666 289.667 919.266 289.9 922.666 289.9ZM979.077 296C974.943 296 971.71 295.567 969.377 294.7C967.043 293.767 965.343 292.233 964.277 290.1C963.277 287.9 962.777 284.833 962.777 280.9V252.5H951.977V246.6H962.777V231.6H971.877V246.6H989.177V252.5H971.877V281.4C971.877 283.8 972.143 285.6 972.677 286.8C973.277 288 974.277 288.867 975.677 289.4C977.143 289.867 979.243 290.1 981.977 290.1C982.843 290.1 985.243 289.833 989.177 289.3V295.2C985.777 295.733 982.41 296 979.077 296ZM1019.51 296C1015.24 296 1012.04 295.833 1009.91 295.5C1007.78 295.233 1005.64 294.6 1003.51 293.6C1001.31 292.6 999.711 291 998.711 288.8C997.711 286.533 997.211 283.5 997.211 279.7V262.9C997.211 259.9 997.578 257.267 998.311 255C999.044 252.733 1000.01 250.967 1001.21 249.7C1002.21 248.567 1003.71 247.7 1005.71 247.1C1007.78 246.433 1009.88 246 1012.01 245.8C1014.41 245.667 1016.91 245.6 1019.51 245.6C1022.98 245.6 1025.58 245.7 1027.31 245.9C1029.11 246.033 1031.01 246.367 1033.01 246.9C1035.08 247.5 1036.68 248.4 1037.81 249.6C1038.94 250.8 1039.91 252.533 1040.71 254.8C1041.44 257.133 1041.81 259.833 1041.81 262.9V279.7C1041.81 285.367 1040.51 289.5 1037.91 292.1C1036.84 293.167 1035.31 294 1033.31 294.6C1031.31 295.2 1029.24 295.6 1027.11 295.8C1024.58 295.933 1022.04 296 1019.51 296ZM1019.51 290.1C1022.31 290.1 1024.34 290.033 1025.61 289.9C1026.88 289.767 1028.11 289.4 1029.31 288.8C1030.51 288.267 1031.34 287.4 1031.81 286.2C1032.34 284.933 1032.61 283.2 1032.61 281V261.4C1032.61 258.4 1032.24 256.233 1031.51 254.9C1030.78 253.5 1029.51 252.6 1027.71 252.2C1025.98 251.733 1023.24 251.5 1019.51 251.5C1015.78 251.5 1013.01 251.733 1011.21 252.2C1009.48 252.6 1008.24 253.5 1007.51 254.9C1006.78 256.233 1006.41 258.4 1006.41 261.4V281C1006.41 283.2 1006.64 284.933 1007.11 286.2C1007.64 287.4 1008.51 288.267 1009.71 288.8C1010.91 289.4 1012.14 289.767 1013.41 289.9C1014.68 290.033 1016.71 290.1 1019.51 290.1Z" fill="white"/>
  <defs>
    <filter id="filter0_d_1_19" x="190.203" y="174.923" width="161.253" height="274.061" filterUnits="userSpaceOnUse" color-interpolation-filters="sRGB">
      <feFlood flood-opacity="0" result="BackgroundImageFix"/>
      <feColorMatrix in="SourceAlpha" type="matrix" values="0 0 0 0 0 0 0 0 0 0 0 0 0 0 0 0 0 0 127 0" result="hardAlpha"/>
      <feOffset dx="-15" dy="15"/>
      <feComposite in2="hardAlpha" operator="out"/>
      <feColorMatrix type="matrix" values="0 0 0 0 0 0 0 0 0 0 0 0 0 0 0 0 0 0 0.25 0"/>
      <feBlend mode="normal" in2="BackgroundImageFix" result="effect1_dropShadow_1_19"/>
      <feBlend mode="normal" in="SourceGraphic" in2="effect1_dropShadow_1_19" result="shape"/>
    </filter>
    <linearGradient id="paint0_linear_1_19" x1="336" y1="-211" x2="648" y2="712.5" gradientUnits="userSpaceOnUse">
      <stop stop-color="#0C0D0E"/>
      <stop offset="1" stop-color="#202E38"/>
    </linearGradient>
    <linearGradient id="paint1_linear_1_19" x1="2.64922" y1="167.908" x2="278.248" y2="452.411" gradientUnits="userSpaceOnUse">
      <stop stop-color="#FF9100"/>
      <stop offset="1" stop-color="#8B4212"/>
    </linearGradient>
    <linearGradient id="paint2_linear_1_19" x1="452.054" y1="258.003" x2="236.259" y2="318.919" gradientUnits="userSpaceOnUse">
      <stop stop-color="#FFD900"/>
      <stop offset="1" stop-color="#DC9527"/>
    </linearGradient>
  </defs>
</svg>
